PathFileType	4	(X/Y/Z)	 control3min.trc
DataRate	CameraRate	NumFrames	NumMarkers	Units	OrigDataRate	OrigDataStartFrame	OrigNumFrames
200	200	9	39	m	200	501	1000
Frame#	Time	C7			LSH			RSH			MAN			RASI			LASI			HIPR			HIPL			RPSI			LPSI			COX			RTHI1			RTHI2			RTHI3			RTHI4			RLKN			RMKN			RSHA1			RSHA2			RSHA3			RSHA4			RHEEL			RMET5			RMET1			RTOE			LTHI1			LTHI2			LTHI3			LTHI4			LLKN			LMKN			LSHA1			LSHA2			LSHA3			LSHA4			LHEEL			LMET5			LMET1			LTOE			
		X1	Y1	Z1	X2	Y2	Z2	X3	Y3	Z3	X4	Y4	Z4	X5	Y5	Z5	X6	Y6	Z6	X7	Y7	Z7	X8	Y8	Z8	X9	Y9	Z9	X10	Y10	Z10	X11	Y11	Z11	X12	Y12	Z12	X13	Y13	Z13	X14	Y14	Z14	X15	Y15	Z15	X16	Y16	Z16	X17	Y17	Z17	X18	Y18	Z18	X19	Y19	Z19	X20	Y20	Z20	X21	Y21	Z21	X22	Y22	Z22	X23	Y23	Z23	X24	Y24	Z24	X25	Y25	Z25	X26	Y26	Z26	X27	Y27	Z27	X28	Y28	Z28	X29	Y29	Z29	X30	Y30	Z30	X31	Y31	Z31	X32	Y32	Z32	X33	Y33	Z33	X34	Y34	Z34	X35	Y35	Z35	X36	Y36	Z36	X37	Y37	Z37	X38	Y38	Z38	X39	Y39	Z39	
501	2.5050	-0.222036	1.452178	-0.532225	-0.182792	1.421857	-0.726131	-0.192579	1.431851	-0.346148	-0.069878	1.380769	-0.538613	-0.111753	0.936779	-0.412507	-0.110815	0.938175	-0.658902	-0.187319	0.986294	-0.363049	-0.190581	0.994120	-0.703410	-0.286302	0.990096	-0.500976	-0.285698	0.990905	-0.562467	-0.284120	0.991968	-0.533228	-0.152176	0.714539	-0.330072	-0.132446	0.656422	-0.326491	-0.066722	0.687192	-0.331136	-0.092675	0.740941	-0.334711	-0.105167	0.455145	-0.354654	-0.075510	0.445135	-0.483190	-0.222719	0.242332	-0.369950	-0.246352	0.210751	-0.387810	-0.192520	0.181814	-0.390448	-0.172933	0.214333	-0.376474	-0.329746	0.087887	-0.456491	-0.178107	0.032407	-0.366782	-0.118628	0.046814	-0.438443	-0.087036	0.034663	-0.432559	-0.197416	0.686347	-0.721805	-0.173529	0.631876	-0.722657	-0.113746	0.660809	-0.752869	-0.145613	0.713227	-0.748813	-0.121307	0.442398	-0.724738	-0.089751	0.424105	-0.607776	-0.256128	0.237419	-0.698898	-0.275650	0.202570	-0.684187	-0.219491	0.176508	-0.693439	-0.207262	0.216399	-0.707476	-0.350059	0.088794	-0.627187	-0.193119	0.033950	-0.710206	-0.141133	0.049710	-0.637336	-0.111384	0.036795	-0.643224	
502	2.5100	-0.222371	1.456409	-0.532193	-0.183226	1.426453	-0.725954	-0.192944	1.436356	-0.346235	-0.070106	1.385368	-0.538597	-0.110674	0.941225	-0.412570	-0.110032	0.942685	-0.659164	-0.186177	0.990734	-0.363234	-0.189713	0.998406	-0.703227	-0.285359	0.994119	-0.500986	-0.284738	0.994939	-0.562473	-0.283175	0.995968	-0.533235	-0.152154	0.718595	-0.330106	-0.132879	0.660342	-0.326510	-0.066918	0.690577	-0.331423	-0.092464	0.744526	-0.334990	-0.107540	0.458718	-0.354583	-0.078069	0.448178	-0.483144	-0.223753	0.244620	-0.369408	-0.247149	0.212843	-0.387216	-0.193122	0.184256	-0.389672	-0.173740	0.216985	-0.375722	-0.329370	0.089791	-0.455613	-0.177896	0.032336	-0.366633	-0.118607	0.046822	-0.438309	-0.087082	0.034654	-0.432641	-0.197698	0.690675	-0.721891	-0.174193	0.636010	-0.722657	-0.114018	0.664529	-0.752462	-0.145490	0.717261	-0.748576	-0.123563	0.445499	-0.724282	-0.093057	0.427292	-0.607054	-0.257091	0.239377	-0.699036	-0.276363	0.204563	-0.684702	-0.219929	0.178757	-0.693816	-0.208012	0.218823	-0.707716	-0.349719	0.090413	-0.628141	-0.192940	0.033941	-0.710297	-0.141156	0.049692	-0.637380	-0.111492	0.036785	-0.643115	
503	2.5150	-0.222770	1.461012	-0.532150	-0.183731	1.431489	-0.725728	-0.193377	1.441258	-0.346342	-0.070379	1.390411	-0.538572	-0.109557	0.946026	-0.412613	-0.109210	0.947577	-0.659424	-0.184993	0.995645	-0.363376	-0.188860	1.003220	-0.702999	-0.284346	0.998502	-0.500956	-0.283726	0.999352	-0.562468	-0.282163	1.000324	-0.533228	-0.152165	0.723026	-0.330114	-0.133394	0.664620	-0.326526	-0.067182	0.694273	-0.331698	-0.092279	0.748438	-0.335254	-0.110210	0.462632	-0.354514	-0.080779	0.451547	-0.483087	-0.224949	0.247161	-0.368909	-0.248054	0.215169	-0.386691	-0.193814	0.186978	-0.388863	-0.174698	0.219902	-0.374934	-0.328848	0.091856	-0.454707	-0.177718	0.032280	-0.366413	-0.118539	0.046888	-0.438271	-0.087136	0.034629	-0.432705	-0.197995	0.695447	-0.722022	-0.174908	0.640581	-0.722690	-0.114314	0.668655	-0.752055	-0.145356	0.721688	-0.748345	-0.126069	0.449001	-0.723803	-0.096447	0.430898	-0.606329	-0.258160	0.241646	-0.699066	-0.277192	0.206731	-0.684826	-0.220427	0.181348	-0.694239	-0.208879	0.221607	-0.707969	-0.349236	0.092293	-0.629050	-0.192749	0.033961	-0.710338	-0.141138	0.049670	-0.637435	-0.111573	0.036783	-0.643000	
504	2.5200	-0.223234	1.465938	-0.532094	-0.184306	1.436910	-0.725456	-0.193887	1.446499	-0.346476	-0.070700	1.395858	-0.538536	-0.108415	0.951120	-0.412649	-0.108346	0.952784	-0.659656	-0.183741	1.000944	-0.363486	-0.187965	1.008530	-0.702761	-0.283257	1.003206	-0.500885	-0.282681	1.004104	-0.562450	-0.281105	1.005010	-0.533196	-0.152232	0.727787	-0.330113	-0.133997	0.669217	-0.326540	-0.067523	0.698260	-0.331949	-0.092138	0.752640	-0.335485	-0.113142	0.466853	-0.354451	-0.083614	0.455240	-0.483030	-0.226266	0.249961	-0.368466	-0.249041	0.217735	-0.386234	-0.194576	0.189964	-0.388006	-0.175764	0.223097	-0.374075	-0.328182	0.094153	-0.453790	-0.177518	0.032263	-0.366212	-0.118463	0.046963	-0.438235	-0.087192	0.034614	-0.432785	-0.198335	0.700598	-0.722172	-0.175684	0.645525	-0.722740	-0.114665	0.673132	-0.751652	-0.145261	0.726470	-0.748116	-0.128797	0.452910	-0.723309	-0.099852	0.434890	-0.605621	-0.259312	0.244211	-0.699018	-0.277944	0.209074	-0.684883	-0.220967	0.184261	-0.694720	-0.209840	0.224733	-0.708253	-0.348599	0.094429	-0.629927	-0.192541	0.034006	-0.710335	-0.141084	0.049648	-0.637504	-0.111641	0.036787	-0.642884	
505	2.5250	-0.223760	1.471144	-0.532024	-0.184942	1.442670	-0.725141	-0.194453	1.452044	-0.346632	-0.071067	1.401659	-0.538491	-0.107268	0.956454	-0.412682	-0.107451	0.958250	-0.659830	-0.182416	1.006546	-0.363573	-0.186994	1.014282	-0.702549	-0.282156	1.008204	-0.500784	-0.281637	1.009162	-0.562426	-0.280082	1.009999	-0.533182	-0.152367	0.732834	-0.330111	-0.134695	0.674099	-0.326556	-0.067949	0.702497	-0.332164	-0.092058	0.757103	-0.335674	-0.116272	0.471343	-0.354393	-0.086563	0.459237	-0.482984	-0.227665	0.253019	-0.368062	-0.250064	0.220523	-0.385826	-0.195379	0.193201	-0.387098	-0.176888	0.226558	-0.373151	-0.327367	0.096653	-0.452813	-0.177285	0.032284	-0.366041	-0.118375	0.047041	-0.438196	-0.087265	0.034610	-0.432849	-0.198738	0.706064	-0.722323	-0.176540	0.650793	-0.722784	-0.115096	0.677914	-0.751255	-0.145252	0.731546	-0.747889	-0.131717	0.457202	-0.722816	-0.103229	0.439228	-0.604948	-0.260522	0.247036	-0.698903	-0.278622	0.211499	-0.684457	-0.221538	0.187461	-0.695258	-0.210892	0.228160	-0.708568	-0.347814	0.096800	-0.630789	-0.192317	0.034068	-0.710305	-0.141002	0.049627	-0.637601	-0.111697	0.036790	-0.642764	
506	2.5300	-0.224344	1.476584	-0.531937	-0.185634	1.448713	-0.724781	-0.195063	1.457842	-0.346807	-0.071489	1.407763	-0.538440	-0.106125	0.961976	-0.412708	-0.106533	0.963916	-0.659938	-0.181026	1.012369	-0.363662	-0.185926	1.020391	-0.702387	-0.281058	1.013462	-0.500657	-0.280573	1.014480	-0.562395	-0.279053	1.015230	-0.533148	-0.152571	0.738131	-0.330097	-0.135485	0.679224	-0.326577	-0.068465	0.706953	-0.332334	-0.092042	0.761796	-0.335809	-0.119549	0.476064	-0.354341	-0.089623	0.463514	-0.482956	-0.229108	0.256309	-0.367663	-0.251093	0.223559	-0.385426	-0.196180	0.196673	-0.386101	-0.178061	0.230276	-0.372182	-0.326434	0.099344	-0.451751	-0.176999	0.032337	-0.365880	-0.118276	0.047124	-0.438148	-0.087353	0.034612	-0.432913	-0.199218	0.711784	-0.722462	-0.177480	0.656334	-0.722808	-0.115631	0.682951	-0.750865	-0.145353	0.736881	-0.747664	-0.134801	0.461833	-0.722341	-0.106547	0.443867	-0.604319	-0.261773	0.250087	-0.698744	-0.279440	0.214041	-0.684229	-0.222126	0.190928	-0.695876	-0.212008	0.231854	-0.708943	-0.346878	0.099419	-0.631689	-0.192063	0.034151	-0.710268	-0.140882	0.049601	-0.637676	-0.111752	0.036785	-0.642616	
507	2.5350	-0.224975	1.482204	-0.531833	-0.186371	1.454992	-0.724378	-0.195715	1.463848	-0.347006	-0.071967	1.414124	-0.538384	-0.105004	0.967655	-0.412725	-0.105603	0.969732	-0.659976	-0.179577	1.018365	-0.363765	-0.184753	1.026760	-0.702271	-0.279985	1.018945	-0.500499	-0.279506	1.020021	-0.562358	-0.278015	1.020662	-0.533084	-0.152849	0.743634	-0.330073	-0.136363	0.684548	-0.326602	-0.069066	0.711604	-0.332458	-0.092099	0.766680	-0.335878	-0.122938	0.481001	-0.354315	-0.092774	0.468050	-0.482952	-0.230552	0.259820	-0.367250	-0.252074	0.226798	-0.385029	-0.196943	0.200360	-0.385034	-0.179232	0.234218	-0.371177	-0.325384	0.102227	-0.450613	-0.176658	0.032471	-0.365763	-0.118175	0.047127	-0.438057	-0.087452	0.034617	-0.432988	-0.199777	0.717723	-0.722582	-0.178507	0.662101	-0.722804	-0.116273	0.688205	-0.750486	-0.145566	0.742419	-0.747434	-0.138024	0.466743	-0.721892	-0.109806	0.448728	-0.603743	-0.263032	0.253351	-0.698602	-0.280233	0.217222	-0.684442	-0.222720	0.194620	-0.696591	-0.213166	0.235778	-0.709403	-0.345800	0.102262	-0.632641	-0.191783	0.034242	-0.710238	-0.140762	0.049590	-0.637792	-0.111824	0.036785	-0.642473	
508	2.5400	-0.225647	1.487956	-0.531715	-0.187145	1.461451	-0.723934	-0.196387	1.470016	-0.347220	-0.072504	1.420690	-0.538324	-0.103923	0.973456	-0.412734	-0.104670	0.975661	-0.659947	-0.178080	1.024505	-0.363896	-0.183486	1.033300	-0.702171	-0.278910	1.024609	-0.500313	-0.278441	1.025750	-0.562311	-0.277007	1.026288	-0.532999	-0.153204	0.749299	-0.330049	-0.137321	0.690037	-0.326636	-0.069754	0.716421	-0.332539	-0.092237	0.771724	-0.335891	-0.126379	0.486112	-0.354296	-0.095998	0.472813	-0.482978	-0.231951	0.263543	-0.366842	-0.252994	0.230216	-0.384592	-0.197654	0.204252	-0.383893	-0.180355	0.238366	-0.370123	-0.324218	0.105315	-0.449400	-0.176258	0.032692	-0.365692	-0.118078	0.047145	-0.437935	-0.087565	0.034633	-0.433077	-0.200412	0.723852	-0.722670	-0.179623	0.668065	-0.722775	-0.117021	0.693634	-0.750125	-0.145884	0.748116	-0.747210	-0.141365	0.471874	-0.721469	-0.112990	0.453760	-0.603222	-0.264269	0.256801	-0.698509	-0.281037	0.220423	-0.684387	-0.223307	0.198505	-0.697421	-0.214333	0.239893	-0.709971	-0.344586	0.105316	-0.633677	-0.191479	0.034350	-0.710232	-0.140653	0.049610	-0.637969	-0.111913	0.036794	-0.642345	
509	2.5450	-0.226349	1.493798	-0.531581	-0.187945	1.468041	-0.723447	-0.197062	1.476309	-0.347443	-0.073100	1.427415	-0.538260	-0.102895	0.979346	-0.412729	-0.103751	0.981669	-0.659849	-0.176549	1.030776	-0.364067	-0.182144	1.039939	-0.702061	-0.277875	1.030435	-0.500105	-0.277385	1.031632	-0.562257	-0.276006	1.032046	-0.532887	-0.153636	0.755087	-0.330031	-0.138355	0.695657	-0.326682	-0.070523	0.721362	-0.332577	-0.092450	0.776891	-0.335849	-0.129812	0.491381	-0.354284	-0.099269	0.477767	-0.483029	-0.233277	0.267424	-0.366400	-0.253822	0.233778	-0.384065	-0.198269	0.208322	-0.382677	-0.181409	0.242683	-0.369041	-0.322930	0.108558	-0.448091	-0.175810	0.032943	-0.365595	-0.118023	0.047109	-0.437697	-0.087704	0.034647	-0.433153	-0.201114	0.730142	-0.722731	-0.180815	0.674190	-0.722716	-0.117864	0.699207	-0.749782	-0.146292	0.753972	-0.746992	-0.144797	0.477178	-0.721079	-0.116104	0.458917	-0.602745	-0.265450	0.260409	-0.698489	-0.281616	0.223667	-0.684176	-0.223852	0.202558	-0.698395	-0.215480	0.244167	-0.710660	-0.343238	0.108550	-0.634810	-0.191139	0.034457	-0.710267	-0.140554	0.049661	-0.638224	-0.112016	0.036820	-0.642253	
